<svg width="720" height="420" viewBox="0 0 720 420" fill="none" xmlns="http://www.w3.org/2000/svg">
  <defs>
    <linearGradient id="bg" x1="56" y1="40" x2="664" y2="380" gradientUnits="userSpaceOnUse">
      <stop stop-color="#0F172A"/>
      <stop offset="1" stop-color="#1D4ED8"/>
    </linearGradient>
    <linearGradient id="accent" x1="120" y1="120" x2="520" y2="320" gradientUnits="userSpaceOnUse">
      <stop stop-color="#14B8A6"/>
      <stop offset="1" stop-color="#22C55E"/>
    </linearGradient>
  </defs>

  <rect x="20" y="20" width="680" height="380" rx="26" fill="url(#bg)"/>

  <circle cx="595" cy="95" r="56" fill="#1E293B"/>
  <circle cx="595" cy="95" r="42" fill="#334155"/>

  <rect x="74" y="88" width="280" height="168" rx="16" fill="#0B1223"/>
  <rect x="94" y="122" width="162" height="10" rx="5" fill="#334155"/>
  <rect x="94" y="148" width="122" height="10" rx="5" fill="#334155"/>
  <rect x="94" y="184" width="222" height="54" rx="10" fill="#111827"/>
  <text x="108" y="218" fill="#D1FAE5" font-size="18" font-family="Arial, sans-serif" font-weight="700">ROI +124%</text>

  <rect x="390" y="136" width="238" height="204" rx="18" fill="#0B1223"/>
  <path d="M424 286C443 273 461 272 476 252C492 231 512 230 535 241C558 253 578 250 598 216" stroke="url(#accent)" stroke-width="10" stroke-linecap="round"/>

  <circle cx="424" cy="286" r="8" fill="#2DD4BF"/>
  <circle cx="476" cy="252" r="8" fill="#2DD4BF"/>
  <circle cx="535" cy="241" r="8" fill="#22C55E"/>
  <circle cx="598" cy="216" r="8" fill="#22C55E"/>

  <rect x="94" y="286" width="228" height="24" rx="12" fill="#1E293B"/>
  <rect x="94" y="286" width="172" height="24" rx="12" fill="#14B8A6"/>
  <text x="102" y="303" fill="#ECFEFF" font-size="11" font-family="Arial, sans-serif" font-weight="700">Payback 1.8 months</text>
</svg>
